<svg width="179" height="141" viewBox="0 0 179 141" fill="none" xmlns="http://www.w3.org/2000/svg">
<ellipse cx="39.1187" cy="5.52331" rx="5.84529" ry="5.52331" fill="#DD3F4C"/>
<ellipse cx="72.3922" cy="5.52331" rx="5.84529" ry="5.52331" fill="#DD3F4C"/>
<ellipse cx="105.665" cy="5.52331" rx="5.84529" ry="5.52331" fill="#DD3F4C"/>
<ellipse cx="138.938" cy="5.52331" rx="5.84529" ry="5.52331" fill="#DD3F4C"/>
<ellipse cx="172.212" cy="5.52331" rx="5.84529" ry="5.52331" fill="#DD3F4C"/>
<ellipse cx="5.84529" cy="5.52331" rx="5.84529" ry="5.52331" fill="#DD3F4C"/>
<ellipse cx="39.1187" cy="31.4078" rx="5.84529" ry="5.52331" fill="#DD3F4C"/>
<ellipse cx="5.84529" cy="31.4078" rx="5.84529" ry="5.52331" fill="#DD3F4C"/>
<ellipse cx="72.3922" cy="31.4078" rx="5.84529" ry="5.52331" fill="#DD3F4C"/>
<ellipse cx="105.665" cy="31.4078" rx="5.84529" ry="5.52331" fill="#DD3F4C"/>
<ellipse cx="138.938" cy="31.4078" rx="5.84529" ry="5.52331" fill="#DD3F4C"/>
<ellipse cx="172.212" cy="31.4078" rx="5.84529" ry="5.52331" fill="#DD3F4C"/>
<ellipse cx="5.84529" cy="57.2926" rx="5.84529" ry="5.52331" fill="#DD3F4C"/>
<ellipse cx="39.1187" cy="57.2926" rx="5.84529" ry="5.52331" fill="#DD3F4C"/>
<ellipse cx="72.3922" cy="57.2926" rx="5.84529" ry="5.52331" fill="#DD3F4C"/>
<ellipse cx="105.665" cy="57.2926" rx="5.84529" ry="5.52331" fill="#DD3F4C"/>
<ellipse cx="138.938" cy="57.2926" rx="5.84529" ry="5.52331" fill="#DD3F4C"/>
<ellipse cx="172.212" cy="57.2926" rx="5.84529" ry="5.52331" fill="#DD3F4C"/>
<ellipse cx="39.1187" cy="83.1771" rx="5.84529" ry="5.52331" fill="#DD3F4C"/>
<ellipse cx="5.84529" cy="83.1771" rx="5.84529" ry="5.52331" fill="#DD3F4C"/>
<ellipse cx="72.3922" cy="83.1771" rx="5.84529" ry="5.52331" fill="#DD3F4C"/>
<ellipse cx="105.665" cy="83.1771" rx="5.84529" ry="5.52331" fill="#DD3F4C"/>
<ellipse cx="138.938" cy="83.1771" rx="5.84529" ry="5.52331" fill="#DD3F4C"/>
<ellipse cx="172.212" cy="83.1771" rx="5.84529" ry="5.52331" fill="#DD3F4C"/>
<ellipse cx="39.1187" cy="109.062" rx="5.84529" ry="5.52331" fill="#DD3F4C"/>
<ellipse cx="5.84529" cy="109.062" rx="5.84529" ry="5.52331" fill="#DD3F4C"/>
<ellipse cx="72.3922" cy="109.062" rx="5.84529" ry="5.52331" fill="#DD3F4C"/>
<ellipse cx="105.665" cy="109.062" rx="5.84529" ry="5.52331" fill="#DD3F4C"/>
<ellipse cx="138.938" cy="109.062" rx="5.84529" ry="5.52331" fill="#DD3F4C"/>
<ellipse cx="172.212" cy="109.062" rx="5.84529" ry="5.52331" fill="#DD3F4C"/>
<ellipse cx="39.1187" cy="134.946" rx="5.84529" ry="5.52331" fill="#DD3F4C"/>
<ellipse cx="5.84529" cy="134.946" rx="5.84529" ry="5.52331" fill="#DD3F4C"/>
<ellipse cx="72.3922" cy="134.946" rx="5.84529" ry="5.52331" fill="#DD3F4C"/>
<ellipse cx="105.665" cy="134.946" rx="5.84529" ry="5.52331" fill="#DD3F4C"/>
<ellipse cx="138.938" cy="134.946" rx="5.84529" ry="5.52331" fill="#DD3F4C"/>
<ellipse cx="172.212" cy="134.946" rx="5.84529" ry="5.52331" fill="#DD3F4C"/>
</svg>
