<svg width="132" height="125" viewBox="0 0 132 125" fill="none" xmlns="http://www.w3.org/2000/svg">
<ellipse cx="29.3667" cy="4.0496" rx="4.28568" ry="4.0496" fill="white"/>
<ellipse cx="53.7622" cy="4.0496" rx="4.28568" ry="4.0496" fill="white"/>
<ellipse cx="78.1573" cy="4.0496" rx="4.28568" ry="4.0496" fill="white"/>
<ellipse cx="102.553" cy="4.0496" rx="4.28568" ry="4.0496" fill="white"/>
<ellipse cx="126.948" cy="4.0496" rx="4.28568" ry="4.0496" fill="white"/>
<ellipse cx="4.97122" cy="4.0496" rx="4.28568" ry="4.0496" fill="white"/>
<ellipse cx="29.3667" cy="27.4297" rx="4.28568" ry="4.0496" fill="white"/>
<ellipse cx="4.97122" cy="27.4297" rx="4.28568" ry="4.0496" fill="white"/>
<ellipse cx="53.7622" cy="27.4297" rx="4.28568" ry="4.0496" fill="white"/>
<ellipse cx="78.1573" cy="27.4297" rx="4.28568" ry="4.0496" fill="white"/>
<ellipse cx="102.553" cy="27.4297" rx="4.28568" ry="4.0496" fill="white"/>
<ellipse cx="126.948" cy="27.4297" rx="4.28568" ry="4.0496" fill="white"/>
<ellipse cx="4.97122" cy="50.8099" rx="4.28568" ry="4.0496" fill="white"/>
<ellipse cx="29.3667" cy="50.8099" rx="4.28568" ry="4.0496" fill="white"/>
<ellipse cx="53.7622" cy="50.8099" rx="4.28568" ry="4.0496" fill="white"/>
<ellipse cx="78.1573" cy="50.8099" rx="4.28568" ry="4.0496" fill="white"/>
<ellipse cx="102.553" cy="50.8099" rx="4.28568" ry="4.0496" fill="white"/>
<ellipse cx="126.948" cy="50.8099" rx="4.28568" ry="4.0496" fill="white"/>
<ellipse cx="29.3667" cy="74.19" rx="4.28568" ry="4.0496" fill="white"/>
<ellipse cx="4.97122" cy="74.19" rx="4.28568" ry="4.0496" fill="white"/>
<ellipse cx="53.7622" cy="74.19" rx="4.28568" ry="4.0496" fill="white"/>
<ellipse cx="78.1573" cy="74.19" rx="4.28568" ry="4.0496" fill="white"/>
<ellipse cx="102.553" cy="74.19" rx="4.28568" ry="4.0496" fill="white"/>
<ellipse cx="126.948" cy="74.19" rx="4.28568" ry="4.0496" fill="white"/>
<ellipse cx="29.3667" cy="97.5701" rx="4.28568" ry="4.0496" fill="white"/>
<ellipse cx="4.97122" cy="97.5701" rx="4.28568" ry="4.0496" fill="white"/>
<ellipse cx="53.7622" cy="97.5701" rx="4.28568" ry="4.0496" fill="white"/>
<ellipse cx="78.1573" cy="97.5701" rx="4.28568" ry="4.0496" fill="white"/>
<ellipse cx="102.553" cy="97.5701" rx="4.28568" ry="4.0496" fill="white"/>
<ellipse cx="126.948" cy="97.5701" rx="4.28568" ry="4.0496" fill="white"/>
<ellipse cx="29.3667" cy="120.95" rx="4.28568" ry="4.0496" fill="white"/>
<ellipse cx="4.97122" cy="120.95" rx="4.28568" ry="4.0496" fill="white"/>
<ellipse cx="53.7622" cy="120.95" rx="4.28568" ry="4.0496" fill="white"/>
<ellipse cx="78.1573" cy="120.95" rx="4.28568" ry="4.0496" fill="white"/>
<ellipse cx="102.553" cy="120.95" rx="4.28568" ry="4.0496" fill="white"/>
<ellipse cx="126.948" cy="120.95" rx="4.28568" ry="4.0496" fill="white"/>
</svg>
